<svg xmlns="http://www.w3.org/2000/svg" viewBox="0 0 580 580" role="img" aria-label="Bridge OS display readability pass 01"><defs><linearGradient id="ul" gradientUnits="userSpaceOnUse" x1="72" y1="250" x2="252" y2="42"><stop offset="0" stop-color="#174DA3"/><stop offset=".52" stop-color="#4D7BC6"/><stop offset="1" stop-color="#7FA4DB"/></linearGradient><linearGradient id="ll" gradientUnits="userSpaceOnUse" x1="68" y1="500" x2="255" y2="325"><stop offset="0" stop-color="#174DA3"/><stop offset=".52" stop-color="#4D7BC6"/><stop offset="1" stop-color="#7FA4DB"/></linearGradient><linearGradient id="lr" gradientUnits="userSpaceOnUse" x1="350" y1="535" x2="500" y2="325"><stop offset="0" stop-color="#174DA3"/><stop offset=".54" stop-color="#4D7BC6"/><stop offset="1" stop-color="#7FA4DB"/></linearGradient><linearGradient id="outline" gradientUnits="userSpaceOnUse" x1="322" y1="260" x2="500" y2="50"><stop offset="0" stop-color="#376DCB"/><stop offset=".56" stop-color="#5A86DF"/><stop offset="1" stop-color="#86A8EF"/></linearGradient><filter id="soft-blur" x="-20%" y="-20%" width="140%" height="140%"><feGaussianBlur stdDeviation="1.15"/></filter><filter id="halo-blur" x="-25%" y="-25%" width="150%" height="150%"><feGaussianBlur stdDeviation="2.1"/></filter><linearGradient id="fade-ul" gradientUnits="userSpaceOnUse" x1="268" y1="268" x2="112" y2="112"><stop offset="0" stop-color="#F2F6FF" stop-opacity=".52"/><stop offset=".20" stop-color="#E5ECFF" stop-opacity=".44"/><stop offset=".55" stop-color="#D8E3FF" stop-opacity=".24"/><stop offset="1" stop-color="#CFDCFF" stop-opacity=".02"/></linearGradient><linearGradient id="fade-ll" gradientUnits="userSpaceOnUse" x1="268" y1="316" x2="108" y2="468"><stop offset="0" stop-color="#F2F6FF" stop-opacity=".52"/><stop offset=".20" stop-color="#E5ECFF" stop-opacity=".44"/><stop offset=".55" stop-color="#D8E3FF" stop-opacity=".24"/><stop offset="1" stop-color="#CFDCFF" stop-opacity=".02"/></linearGradient><linearGradient id="fade-lr" gradientUnits="userSpaceOnUse" x1="312" y1="316" x2="472" y2="467"><stop offset="0" stop-color="#F2F6FF" stop-opacity=".52"/><stop offset=".20" stop-color="#E5ECFF" stop-opacity=".44"/><stop offset=".55" stop-color="#D8E3FF" stop-opacity=".24"/><stop offset="1" stop-color="#CFDCFF" stop-opacity=".02"/></linearGradient></defs><g><path d="M273 273H114C65 273 27 237 27 188C27 141 61 104 105 104C104 59 139 25 190 25C237 25 273 62 273 109Z" fill="url(#ul)"/><path d="M273 311V457C273 510 237 551 184 551C138 551 104 521 103 479C59 478 26 445 26 402C26 351 64 311 117 311Z" fill="url(#ll)"/><path d="M307 311H466C515 311 550 346 550 394C550 439 518 475 476 477C475 520 443 551 400 551C349 551 307 513 307 461Z" fill="url(#lr)"/></g><g><path d="M268 268 L112 112" stroke="url(#fade-ul)" stroke-width="6" stroke-linecap="round" fill="none" filter="url(#halo-blur)" opacity=".55"/><path d="M268 268 L112 112" stroke="url(#fade-ul)" stroke-width="3.6" stroke-linecap="round" fill="none" filter="url(#soft-blur)" opacity=".72"/><path d="M268 268 L112 112" stroke="url(#fade-ul)" stroke-width="1.55" stroke-linecap="round" fill="none" opacity=".92"/><path d="M268 316 L108 468" stroke="url(#fade-ll)" stroke-width="6" stroke-linecap="round" fill="none" filter="url(#halo-blur)" opacity=".55"/><path d="M268 316 L108 468" stroke="url(#fade-ll)" stroke-width="3.6" stroke-linecap="round" fill="none" filter="url(#soft-blur)" opacity=".72"/><path d="M268 316 L108 468" stroke="url(#fade-ll)" stroke-width="1.55" stroke-linecap="round" fill="none" opacity=".92"/><path d="M312 316 L472 467" stroke="url(#fade-lr)" stroke-width="6" stroke-linecap="round" fill="none" filter="url(#halo-blur)" opacity=".55"/><path d="M312 316 L472 467" stroke="url(#fade-lr)" stroke-width="3.6" stroke-linecap="round" fill="none" filter="url(#soft-blur)" opacity=".72"/><path d="M312 316 L472 467" stroke="url(#fade-lr)" stroke-width="1.55" stroke-linecap="round" fill="none" opacity=".92"/></g><path d="M308 272V121C308 66 350 23 407 23C455 23 487 56 487 99C527 101 556 131 556 173C556 229 519 272 466 272Z" fill="none" stroke="url(#outline)" stroke-width="5.2" stroke-linejoin="round"/><path id="bridge-os-initial-b" d="M 384 223.5 V 114 H 416 C 438 114 450 124 450 140 C 450 157 438 167 416 167 H 384 M 416 167 C 441 167 454 177 454 193 C 454 210 441 219 416 219 H 384" fill="none" stroke="#5A86DF" stroke-width="9.8" stroke-linecap="butt" stroke-linejoin="round" transform="translate(419.2 166.5) scale(.99 .975) translate(-420 -166.5)"/></svg>