<?xml version="1.0" encoding="UTF-8"?>
<svg data-readability-pass="01" xmlns="http://www.w3.org/2000/svg" viewBox="0 0 580 580" role="img" aria-label="Cloverwood Studio parent symbol display variant">

  <defs>
    <linearGradient id="g-ul" gradientUnits="userSpaceOnUse" x1="72" y1="250" x2="252" y2="42">
      <stop offset="0" stop-color="#0D301B"/>
      <stop offset="0.56" stop-color="#245935"/>
      <stop offset="1" stop-color="#4A8251"/>
    </linearGradient>
    <linearGradient id="g-ur" gradientUnits="userSpaceOnUse" x1="328" y1="250" x2="508" y2="42">
      <stop offset="0" stop-color="#123720"/>
      <stop offset="0.56" stop-color="#2E6640"/>
      <stop offset="1" stop-color="#5A8E5C"/>
    </linearGradient>
    <linearGradient id="g-ll" gradientUnits="userSpaceOnUse" x1="68" y1="500" x2="255" y2="325">
      <stop offset="0" stop-color="#0A2816"/>
      <stop offset="0.56" stop-color="#1F5030"/>
      <stop offset="1" stop-color="#447A4B"/>
    </linearGradient>
    <linearGradient id="g-lr" gradientUnits="userSpaceOnUse" x1="350" y1="535" x2="500" y2="325">
      <stop offset="0" stop-color="#0D301B"/>
      <stop offset="0.56" stop-color="#245935"/>
      <stop offset="1" stop-color="#4A8251"/>
    </linearGradient>

    <clipPath id="clip-ul"><path d="M273 273H114C65 273 27 237 27 188C27 141 61 104 105 104C104 59 139 25 190 25C237 25 273 62 273 109Z"/></clipPath>
    <clipPath id="clip-ur"><path d="M308 273V121C308 66 350 23 407 23C455 23 487 56 487 99C527 101 556 131 556 173C556 229 519 273 466 273Z"/></clipPath>
    <clipPath id="clip-ll"><path d="M273 311V457C273 510 237 551 184 551C138 551 104 521 103 479C59 478 26 445 26 402C26 351 64 311 117 311Z"/></clipPath>
    <clipPath id="clip-lr"><path d="M308 311H466C515 311 550 346 550 394C550 439 518 475 476 477C475 520 443 551 400 551C349 551 308 513 308 461Z"/></clipPath>

    <filter id="grain" x="-5%" y="-5%" width="110%" height="110%">
      <feTurbulence type="fractalNoise" baseFrequency="0.012 0.018" numOctaves="2" seed="17" result="noise"/>
      <feColorMatrix in="noise" type="saturate" values="0" result="gray"/>
      <feComponentTransfer in="gray">
        <feFuncA type="linear" slope="0.12"/>
      </feComponentTransfer>
    </filter>
    <filter id="soft-blur" x="-20%" y="-20%" width="140%" height="140%">
      <feGaussianBlur stdDeviation="1.15"/>
    </filter>
    <filter id="halo-blur" x="-25%" y="-25%" width="150%" height="150%">
      <feGaussianBlur stdDeviation="2.1"/>
    </filter>

    <linearGradient id="fade-ul" gradientUnits="userSpaceOnUse" x1="268" y1="268" x2="112" y2="112">
      <stop offset="0" stop-color="#F8FCEB" stop-opacity="0.52"/>
      <stop offset="0.20" stop-color="#EEF8D8" stop-opacity="0.44"/>
      <stop offset="0.55" stop-color="#E8F5D0" stop-opacity="0.24"/>
      <stop offset="1" stop-color="#E4F3CC" stop-opacity="0.02"/>
    </linearGradient>
    <linearGradient id="fade-ur" gradientUnits="userSpaceOnUse" x1="312" y1="268" x2="468" y2="112">
      <stop offset="0" stop-color="#F8FCEB" stop-opacity="0.52"/>
      <stop offset="0.20" stop-color="#EEF8D8" stop-opacity="0.44"/>
      <stop offset="0.55" stop-color="#E8F5D0" stop-opacity="0.24"/>
      <stop offset="1" stop-color="#E4F3CC" stop-opacity="0.02"/>
    </linearGradient>
    <linearGradient id="fade-ll" gradientUnits="userSpaceOnUse" x1="268" y1="316" x2="108" y2="468">
      <stop offset="0" stop-color="#F8FCEB" stop-opacity="0.52"/>
      <stop offset="0.20" stop-color="#EEF8D8" stop-opacity="0.44"/>
      <stop offset="0.55" stop-color="#E8F5D0" stop-opacity="0.24"/>
      <stop offset="1" stop-color="#E4F3CC" stop-opacity="0.02"/>
    </linearGradient>
    <linearGradient id="fade-lr" gradientUnits="userSpaceOnUse" x1="312" y1="316" x2="472" y2="467">
      <stop offset="0" stop-color="#F8FCEB" stop-opacity="0.52"/>
      <stop offset="0.20" stop-color="#EEF8D8" stop-opacity="0.44"/>
      <stop offset="0.55" stop-color="#E8F5D0" stop-opacity="0.24"/>
      <stop offset="1" stop-color="#E4F3CC" stop-opacity="0.02"/>
    </linearGradient>
  </defs>

  <path d="M273 273H114C65 273 27 237 27 188C27 141 61 104 105 104C104 59 139 25 190 25C237 25 273 62 273 109Z" fill="url(#g-ul)"/>
  <path d="M308 273V121C308 66 350 23 407 23C455 23 487 56 487 99C527 101 556 131 556 173C556 229 519 273 466 273Z" fill="url(#g-ur)"/>
  <path d="M273 311V457C273 510 237 551 184 551C138 551 104 521 103 479C59 478 26 445 26 402C26 351 64 311 117 311Z" fill="url(#g-ll)"/>
  <path d="M308 311H466C515 311 550 346 550 394C550 439 518 475 476 477C475 520 443 551 400 551C349 551 308 513 308 461Z" fill="url(#g-lr)"/>
  <g filter="url(#grain)" opacity="0.12" style="mix-blend-mode:soft-light">
    <rect x="20" y="18" width="540" height="540" fill="#fff" clip-path="url(#clip-ul)"/>
    <rect x="20" y="18" width="540" height="540" fill="#fff" clip-path="url(#clip-ur)"/>
    <rect x="20" y="18" width="540" height="540" fill="#fff" clip-path="url(#clip-ll)"/>
    <rect x="20" y="18" width="540" height="540" fill="#fff" clip-path="url(#clip-lr)"/>
  </g>
  <g>
  <path d="M268 268 L112 112" clip-path="url(#clip-ul)" stroke="url(#fade-ul)" stroke-width="6.0" stroke-linecap="round" fill="none" filter="url(#halo-blur)" opacity="0.55"/>
  <path d="M268 268 L112 112" clip-path="url(#clip-ul)" stroke="url(#fade-ul)" stroke-width="3.6" stroke-linecap="round" fill="none" filter="url(#soft-blur)" opacity="0.72"/>
  <path d="M268 268 L112 112" clip-path="url(#clip-ul)" stroke="url(#fade-ul)" stroke-width="1.55" stroke-linecap="round" fill="none" opacity="0.92"/>
  <path d="M312 268 L468 112" clip-path="url(#clip-ur)" stroke="url(#fade-ur)" stroke-width="6.0" stroke-linecap="round" fill="none" filter="url(#halo-blur)" opacity="0.55"/>
  <path d="M312 268 L468 112" clip-path="url(#clip-ur)" stroke="url(#fade-ur)" stroke-width="3.6" stroke-linecap="round" fill="none" filter="url(#soft-blur)" opacity="0.72"/>
  <path d="M312 268 L468 112" clip-path="url(#clip-ur)" stroke="url(#fade-ur)" stroke-width="1.55" stroke-linecap="round" fill="none" opacity="0.92"/>
  <path d="M268 316 L108 468" clip-path="url(#clip-ll)" stroke="url(#fade-ll)" stroke-width="6.0" stroke-linecap="round" fill="none" filter="url(#halo-blur)" opacity="0.55"/>
  <path d="M268 316 L108 468" clip-path="url(#clip-ll)" stroke="url(#fade-ll)" stroke-width="3.6" stroke-linecap="round" fill="none" filter="url(#soft-blur)" opacity="0.72"/>
  <path d="M268 316 L108 468" clip-path="url(#clip-ll)" stroke="url(#fade-ll)" stroke-width="1.55" stroke-linecap="round" fill="none" opacity="0.92"/>
  <path d="M312 316 L472 467" clip-path="url(#clip-lr)" stroke="url(#fade-lr)" stroke-width="6.0" stroke-linecap="round" fill="none" filter="url(#halo-blur)" opacity="0.55"/>
  <path d="M312 316 L472 467" clip-path="url(#clip-lr)" stroke="url(#fade-lr)" stroke-width="3.6" stroke-linecap="round" fill="none" filter="url(#soft-blur)" opacity="0.72"/>
  <path d="M312 316 L472 467" clip-path="url(#clip-lr)" stroke="url(#fade-lr)" stroke-width="1.55" stroke-linecap="round" fill="none" opacity="0.92"/>
  </g>
</svg>