<?xml version="1.0" encoding="UTF-8"?>
<svg data-readability-pass="01" xmlns="http://www.w3.org/2000/svg" viewBox="0 0 580 580" role="img" aria-label="Cloverwood world symbol candidate 01 small C2" data-status="WORKING PROOF — NOT LOCKED" data-derived-from="cloverwood-project-symbol-template-master-v1.1.svg" data-vein-mode="C2">

  <defs>
    <linearGradient id="ul" gradientUnits="userSpaceOnUse" x1="72" y1="250" x2="252" y2="42">
      <stop offset="0" stop-color="#D69C05"/>
      <stop offset=".52" stop-color="#F4C21A"/>
      <stop offset="1" stop-color="#FFD766"/>
    </linearGradient>
    <linearGradient id="ll" gradientUnits="userSpaceOnUse" x1="68" y1="500" x2="255" y2="325">
      <stop offset="0" stop-color="#C88800"/>
      <stop offset=".52" stop-color="#ECAF10"/>
      <stop offset="1" stop-color="#F8CB45"/>
    </linearGradient>
    <linearGradient id="lr" gradientUnits="userSpaceOnUse" x1="350" y1="535" x2="500" y2="325">
      <stop offset="0" stop-color="#CF9200"/>
      <stop offset=".54" stop-color="#F0B817"/>
      <stop offset="1" stop-color="#FFD25A"/>
    </linearGradient>
    <linearGradient id="outline" gradientUnits="userSpaceOnUse" x1="322" y1="260" x2="500" y2="50">
      <stop offset="0" stop-color="#D89F00"/>
      <stop offset=".56" stop-color="#F4C21A"/>
      <stop offset="1" stop-color="#FFD766"/>
    </linearGradient>

    <filter id="leaf-texture" x="-4%" y="-4%" width="108%" height="108%" color-interpolation-filters="sRGB">
      <feTurbulence type="fractalNoise" baseFrequency=".011 .019" numOctaves="3" seed="29" result="noise"/>
      <feColorMatrix in="noise" type="saturate" values="0" result="gray"/>
      <feComponentTransfer in="gray" result="quiet">
        <feFuncR type="linear" slope=".6" intercept=".2"/>
        <feFuncG type="linear" slope=".6" intercept=".2"/>
        <feFuncB type="linear" slope=".6" intercept=".2"/>
        <feFuncA type="linear" slope="1"/>
      </feComponentTransfer>
      <feComposite in="quiet" in2="SourceAlpha" operator="in"/>
    </filter>
    <filter id="soft-blur" x="-20%" y="-20%" width="140%" height="140%"><feGaussianBlur stdDeviation="1.15"/></filter>
    <filter id="halo-blur" x="-25%" y="-25%" width="150%" height="150%"><feGaussianBlur stdDeviation="2.1"/></filter>

    <clipPath id="clip-ul"><path d="M273 273H114C65 273 27 237 27 188C27 141 61 104 105 104C104 59 139 25 190 25C237 25 273 62 273 109Z"/></clipPath>
    <clipPath id="clip-ll"><path d="M273 311V457C273 510 237 551 184 551C138 551 104 521 103 479C59 478 26 445 26 402C26 351 64 311 117 311Z"/></clipPath>
    <clipPath id="clip-lr"><path d="M307 311H466C515 311 550 346 550 394C550 439 518 475 476 477C475 520 443 551 400 551C349 551 307 513 307 461Z"/></clipPath>

    <linearGradient id="fade-ul" gradientUnits="userSpaceOnUse" x1="268" y1="268" x2="112" y2="112">
      <stop offset="0" stop-color="#FFF6CB" stop-opacity=".58"/>
      <stop offset=".20" stop-color="#FFF1B7" stop-opacity=".46"/>
      <stop offset=".55" stop-color="#FFEB9F" stop-opacity=".25"/>
      <stop offset="1" stop-color="#FFE88F" stop-opacity=".02"/>
    </linearGradient>
    <linearGradient id="fade-ll" gradientUnits="userSpaceOnUse" x1="268" y1="316" x2="108" y2="468">
      <stop offset="0" stop-color="#FFF6CB" stop-opacity=".58"/>
      <stop offset=".20" stop-color="#FFF1B7" stop-opacity=".46"/>
      <stop offset=".55" stop-color="#FFEB9F" stop-opacity=".25"/>
      <stop offset="1" stop-color="#FFE88F" stop-opacity=".02"/>
    </linearGradient>
    <linearGradient id="fade-lr" gradientUnits="userSpaceOnUse" x1="312" y1="316" x2="472" y2="467">
      <stop offset="0" stop-color="#FFF6CB" stop-opacity=".58"/>
      <stop offset=".20" stop-color="#FFF1B7" stop-opacity=".46"/>
      <stop offset=".55" stop-color="#FFEB9F" stop-opacity=".25"/>
      <stop offset="1" stop-color="#FFE88F" stop-opacity=".02"/>
    </linearGradient>
  </defs>
  <g id="cloverwood-world-symbol-candidate-01">
    <path d="M273 273H114C65 273 27 237 27 188C27 141 61 104 105 104C104 59 139 25 190 25C237 25 273 62 273 109Z" fill="url(#ul)"/>
    <path d="M273 311V457C273 510 237 551 184 551C138 551 104 521 103 479C59 478 26 445 26 402C26 351 64 311 117 311Z" fill="url(#ll)"/>
    <path d="M307 311H466C515 311 550 346 550 394C550 439 518 475 476 477C475 520 443 551 400 551C349 551 307 513 307 461Z" fill="url(#lr)"/>
    <g filter="url(#leaf-texture)" opacity=".075" style="mix-blend-mode:soft-light">
      <rect x="20" y="18" width="260" height="264" fill="#fff" clip-path="url(#clip-ul)"/>
      <rect x="20" y="304" width="260" height="254" fill="#fff" clip-path="url(#clip-ll)"/>
      <rect x="300" y="304" width="258" height="254" fill="#fff" clip-path="url(#clip-lr)"/>
    </g>
    <g><path d="M268 268C226 224 170 164 112 112" clip-path="url(#clip-ul)" stroke="#FFF5C7" stroke-opacity=".20" stroke-width="6" stroke-linecap="round" fill="none" filter="url(#halo-blur)"/>
    <path d="M268 268C226 224 170 164 112 112" clip-path="url(#clip-ul)" stroke="#FFF1B4" stroke-opacity=".26" stroke-width="4.2" stroke-linecap="round" fill="none" filter="url(#soft-blur)"/>
    <path d="M268 268C226 224 170 164 112 112" clip-path="url(#clip-ul)" stroke="#FFF8D9" stroke-opacity=".30" stroke-width="1.9" stroke-linecap="round" fill="none"/>
    <path d="M268 316C225 357 169 416 108 468" clip-path="url(#clip-ll)" stroke="#FFF5C7" stroke-opacity=".20" stroke-width="6" stroke-linecap="round" fill="none" filter="url(#halo-blur)"/>
    <path d="M268 316C225 357 169 416 108 468" clip-path="url(#clip-ll)" stroke="#FFF1B4" stroke-opacity=".26" stroke-width="4.2" stroke-linecap="round" fill="none" filter="url(#soft-blur)"/>
    <path d="M268 316C225 357 169 416 108 468" clip-path="url(#clip-ll)" stroke="#FFF8D9" stroke-opacity=".30" stroke-width="1.9" stroke-linecap="round" fill="none"/>
    <path d="M312 316C355 357 411 416 472 467" clip-path="url(#clip-lr)" stroke="#FFF5C7" stroke-opacity=".20" stroke-width="6" stroke-linecap="round" fill="none" filter="url(#halo-blur)"/>
    <path d="M312 316C355 357 411 416 472 467" clip-path="url(#clip-lr)" stroke="#FFF1B4" stroke-opacity=".26" stroke-width="4.2" stroke-linecap="round" fill="none" filter="url(#soft-blur)"/>
    <path d="M312 316C355 357 411 416 472 467" clip-path="url(#clip-lr)" stroke="#FFF8D9" stroke-opacity=".30" stroke-width="1.9" stroke-linecap="round" fill="none"/></g>
    <path d="M308 272V121C308 66 350 23 407 23C455 23 487 56 487 99C527 101 556 131 556 173C556 229 519 272 466 272Z" fill="none" stroke="url(#outline)" stroke-width="5.17" stroke-linejoin="round"/>
    <path id="cloverwood-initial-c" d="M458 126 C449 117 438 112 423 112 C394 112 376 134 376 166.5 C376 199 394 221 423 221 C438 221 449 216 458 207" fill="none" stroke="url(#outline)" stroke-width="10.26" stroke-linecap="butt" stroke-linejoin="round" data-base-height="109" data-system-weight="9"/>
  </g>
</svg>